
<svg id="Capa_2" data-name="Capa 2" xmlns="http://www.w3.org/2000/svg" viewBox="0 0 556.55 66.03">
  <defs>
    <style>
      .cls-1 {
        fill-rule: evenodd;
      }
    </style>
  </defs>
  <g id="Capa_1-2" data-name="Capa 1">
    <path class="cls-1" d="m364.29,7.41v23.98c0,1.1-.09,3.27.67,4.16.61.71,1.83.78,2.7.78.21,0,.38.17.38.38v1.07c0,.21-.17.38-.38.38h-8.56c-.21,0-.38-.17-.38-.38v-1.07c0-.21.17-.38.38-.38.87,0,2.09-.07,2.7-.78.76-.88.67-3.06.67-4.16V4.11c-.9-.85-2.17-.98-3.37-.98-.21,0-.38-.17-.38-.38v-1.06c0-.21.17-.38.38-.38h9.21c.16,0,.3.09.36.25l10.79,28.04,10.8-28.04c.06-.15.2-.25.36-.25h32.75c.43,0,1.93.01,2.18-.48.06-.13.07-.3.07-.44,0-.21.17-.38.38-.38h1.07c.18,0,.34.13.38.31l2.4,11.81c.02.12,0,.23-.08.32-.08.09-.18.14-.3.14h-1.06c-.16,0-.29-.09-.35-.24-.9-2.15-1.76-4.39-3.33-6.16-1.98-2.24-4.54-3.05-7.48-3.05h-8.08v14.6h1.09c1.76,0,5.43.04,6.6-1.59.78-1.07.73-3.15.74-4.42,0-.21.17-.38.38-.38h1.07c.21,0,.38.17.38.38v13.84c0,.21-.17.38-.38.38h-1.07c-.21,0-.38-.17-.38-.38-.01-1.27.04-3.35-.74-4.42-1.18-1.62-4.85-1.59-6.6-1.59h-1.09v16.77h8.08c2.93,0,5.5-.81,7.48-3.05,1.57-1.77,2.43-4.01,3.33-6.16.06-.15.2-.24.35-.24h1.06c.12,0,.22.05.3.14.08.09.1.2.08.32l-2.4,11.8c-.04.18-.19.31-.38.31h-1.07c-.21,0-.38-.17-.38-.38,0-.14,0-.31-.07-.44-.24-.48-1.75-.47-2.18-.47h-36.46c-.21,0-.38-.17-.38-.38v-1.07c0-.21.17-.38.38-.38.87,0,2.09-.07,2.7-.78.76-.88.67-3.06.67-4.16V6.52l-12.08,31.4c-.06.15-.2.25-.36.25h-1.11c-.16,0-.3-.09-.36-.24l-11.9-30.04c-.06-.16-.12-.32-.19-.48m70.43-.96v24.94c0,1.1-.09,3.27.67,4.16.61.71,1.83.78,2.7.78.21,0,.38.17.38.38v1.07c0,.21-.17.38-.38.38h-8.56c-.21,0-.38-.17-.38-.38v-1.07c0-.21.17-.38.38-.38.87,0,2.09-.07,2.7-.78.76-.88.67-3.06.67-4.16V4.35c-1-.86-2.01-1.22-3.37-1.22-.21,0-.38-.17-.38-.38v-1.06c0-.21.17-.38.38-.38h9.35c.13,0,.24.06.31.16l18.42,25.64V8.07c0-1.1.09-3.27-.67-4.15-.61-.71-1.83-.79-2.7-.79-.21,0-.38-.17-.38-.38v-1.06c0-.21.17-.38.38-.38h8.56c.21,0,.38.17.38.38v1.06c0,.21-.17.38-.38.38-.87,0-2.08.07-2.7.78-.76.88-.66,3.06-.66,4.16v29.71c0,.21-.17.38-.38.38h-1.07c-.13,0-.24-.06-.31-.16l-21.85-30.04c-.36-.52-.73-1.02-1.11-1.52Zm40.87-3.32h-1.7c-2.93,0-5.5.81-7.48,3.05-1.57,1.77-2.43,4.01-3.32,6.16-.06.15-.2.24-.35.24h-1.07c-.12,0-.22-.05-.3-.14-.08-.09-.1-.2-.08-.32l2.41-11.81c.04-.18.19-.31.38-.31h1.07c.21,0,.38.17.38.38,0,.14,0,.31.07.44.25.49,1.75.48,2.19.48h21.84c.43,0,1.94.01,2.19-.48.06-.13.07-.3.07-.44,0-.21.17-.38.38-.38h1.07c.18,0,.34.13.38.31l2.4,11.81c.02.12,0,.23-.08.32-.08.09-.18.14-.3.14h-1.07c-.16,0-.29-.09-.35-.24-.89-2.15-1.75-4.39-3.32-6.16-1.98-2.24-4.54-3.05-7.48-3.05h-1.7v28.26c0,1.1-.09,3.27.67,4.16.61.71,1.83.78,2.7.78.21,0,.38.17.38.38v1.07c0,.21-.17.38-.38.38h-12.96c-.21,0-.38-.17-.38-.38v-1.07c0-.21.17-.38.38-.38.87,0,2.09-.07,2.7-.78.76-.88.67-3.06.67-4.16V3.13Zm28.81,0v14.6h1.09c1.76,0,5.43.04,6.6-1.59.78-1.07.73-3.15.74-4.42,0-.21.17-.38.38-.38h1.07c.21,0,.38.17.38.38v13.84c0,.21-.17.38-.38.38h-1.07c-.21,0-.38-.17-.38-.38-.01-1.27.04-3.35-.74-4.42-1.18-1.62-4.85-1.59-6.6-1.59h-1.09v16.77h8.08c2.93,0,5.5-.81,7.48-3.05,1.57-1.77,2.43-4.01,3.33-6.16.06-.15.2-.24.35-.24h1.06c.12,0,.22.05.3.14.08.09.1.2.08.32l-2.41,11.8c-.04.18-.19.31-.38.31h-1.07c-.21,0-.38-.17-.38-.38,0-.14,0-.31-.07-.44-.24-.48-1.75-.47-2.18-.47h-23.79c-.21,0-.38-.17-.38-.38v-1.07c0-.21.17-.38.38-.38.87,0,2.09-.07,2.7-.78.76-.88.67-3.06.67-4.16V8.07c0-1.1.09-3.27-.67-4.15-.61-.71-1.83-.79-2.7-.79-.21,0-.38-.17-.38-.38v-1.06c0-.21.17-.38.38-.38h23.79c.43,0,1.93.01,2.18-.48.06-.13.07-.3.07-.44,0-.21.17-.38.38-.38h1.07c.18,0,.34.13.38.31l2.41,11.81c.02.12,0,.23-.08.32-.08.09-.18.14-.3.14h-1.06c-.16,0-.29-.09-.35-.24-.9-2.15-1.76-4.39-3.33-6.16-1.98-2.24-4.54-3.05-7.48-3.05h-8.08Zm21.51,23.76h1.07c.15,0,.27.08.34.2,3.37,6.35,8.87,9.93,16.18,9.93,3.92,0,8.37-1.44,8.37-6.05,0-9.78-25.6-5.69-25.6-19.81,0-2.72,1.27-5.31,3.25-7.15,2.72-2.53,6.42-3.47,10.05-3.47,2.22,0,4.39.17,6.58.56.64.12,1.27.25,1.91.38.37.08.81.17,1.19.17.76,0,.81-.79.93-1.36.04-.18.19-.3.37-.3h1.06c.18,0,.34.13.38.31l2.41,11.81c.02.12,0,.23-.08.32-.08.09-.18.14-.3.14h-1.06c-.15,0-.27-.07-.34-.2-1.25-2.37-2.56-4.55-4.56-6.37-2.75-2.5-6.04-3.56-9.73-3.56s-7.43,2.05-7.43,6.05c0,10.24,25.68,7.02,25.68,19.58,0,1.16-.17,2.32-.54,3.43-1.97,5.89-8.44,7.41-13.97,7.41-1.41,0-2.85-.12-4.25-.27-1.48-.16-2.96-.35-4.43-.55-.82-.11-1.89-.3-2.7-.3-.76,0-.8.79-.92,1.36-.04.18-.19.3-.37.3h-1.07c-.18,0-.34-.13-.38-.31l-2.41-11.8c-.02-.12,0-.23.08-.32.08-.09.18-.14.3-.14Zm-391.87.21V8.07c0-1.1.09-3.27-.67-4.15-.61-.71-1.83-.79-2.7-.79-.21,0-.38-.17-.38-.38v-1.06c0-.21.17-.38.38-.38h8.56c.21,0,.38.17.38.38v1.06c0,.21-.17.38-.38.38-.87,0-2.08.07-2.69.78-.76.88-.66,3.06-.66,4.16v29.71c0,.21-.17.38-.38.38h-1.07c-.13,0-.24-.06-.31-.16l-21.85-30.04c-.36-.52-.73-1.02-1.11-1.52v24.94c0,1.1-.09,3.27.67,4.16.61.71,1.83.78,2.7.78.21,0,.38.17.38.38v1.07c0,.21-.17.38-.38.38h-21.22c-.21,0-.38-.17-.38-.38v-1.07c0-.21.17-.38.38-.38.87,0,2.09-.07,2.7-.78.76-.88.67-3.06.67-4.16V8.07c0-1.1.09-3.27-.67-4.15-.61-.71-1.83-.79-2.7-.79-.21,0-.38-.17-.38-.38v-1.06c0-.21.17-.38.38-.38h22.01c.13,0,.24.06.31.16l18.42,25.64Zm17.98-23.97h-1.7c-2.93,0-5.5.81-7.48,3.05-1.57,1.77-2.43,4.01-3.32,6.16-.06.15-.2.24-.35.24h-1.07c-.12,0-.22-.05-.3-.14-.08-.09-.1-.2-.08-.32l2.41-11.81c.04-.18.19-.31.38-.31h1.07c.21,0,.38.17.38.38,0,.14,0,.31.07.44.25.49,1.75.48,2.19.48h21.84c.43,0,1.94.01,2.19-.48.06-.13.07-.3.07-.44,0-.21.17-.38.38-.38h1.07c.18,0,.34.13.38.31l2.4,11.81c.02.12,0,.23-.08.32-.08.09-.18.14-.3.14h-1.07c-.16,0-.29-.09-.35-.24-.89-2.15-1.75-4.39-3.32-6.16-1.98-2.24-4.54-3.05-7.48-3.05h-1.7v28.26c0,1.1-.09,3.27.67,4.16.61.71,1.83.78,2.7.78.21,0,.38.17.38.38v1.07c0,.21-.17.38-.38.38h-12.96c-.21,0-.38-.17-.38-.38v-1.07c0-.21.17-.38.38-.38.87,0,2.09-.07,2.7-.78.76-.88.67-3.06.67-4.16V3.13Zm28.81,0v14.6h1.09c1.76,0,5.43.04,6.6-1.59.78-1.07.73-3.15.74-4.42,0-.21.17-.38.38-.38h1.07c.21,0,.38.17.38.38v13.84c0,.21-.17.38-.38.38h-1.07c-.21,0-.38-.17-.38-.38-.01-1.27.04-3.35-.74-4.42-1.18-1.62-4.85-1.59-6.6-1.59h-1.09v16.77h8.08c2.93,0,5.5-.81,7.48-3.05,1.57-1.77,2.43-4.01,3.33-6.16.06-.15.2-.24.35-.24h1.06c.12,0,.22.05.3.14.08.09.1.2.08.32l-2.41,11.8c-.04.18-.19.31-.38.31h-1.07c-.21,0-.38-.17-.38-.38,0-.14,0-.31-.07-.44-.24-.48-1.75-.47-2.18-.47h-23.79c-.21,0-.38-.17-.38-.38v-1.07c0-.21.17-.38.38-.38.87,0,2.09-.07,2.7-.78.76-.88.67-3.06.67-4.16V8.07c0-1.1.09-3.27-.67-4.15-.61-.71-1.83-.79-2.7-.79-.21,0-.38-.17-.38-.38v-1.06c0-.21.17-.38.38-.38h23.79c.43,0,1.93.01,2.18-.48.06-.13.07-.3.07-.44,0-.21.17-.38.38-.38h1.07c.18,0,.34.13.38.31l2.41,11.81c.02.12,0,.23-.08.32-.08.09-.18.14-.3.14h-1.06c-.16,0-.29-.09-.35-.24-.9-2.15-1.76-4.39-3.33-6.16-1.98-2.24-4.54-3.05-7.48-3.05h-8.08Zm48.08,29.88v-7.62c0-1.1.09-3.27-.67-4.15-.61-.71-1.83-.79-2.7-.79-.21,0-.38-.17-.38-.38v-1.07c0-.21.17-.38.38-.38h12.96c.21,0,.38.17.38.38v1.07c0,.21-.17.38-.38.38-.87,0-2.08.07-2.7.78-.76.88-.66,3.06-.66,4.16v9.2c0,.21-.17.38-.38.38h-1.07c-.21,0-.38-.17-.38-.38,0-.41,0-1.01-.55-1.01s-1.21.47-1.62.76c-.87.61-1.69,1.26-2.59,1.84-2.94,1.89-5.98,2.72-9.48,2.72-10.01,0-17.32-6.63-17.32-16.81,0-10.99,8.35-21.54,19.82-21.54,1.6,0,3.1.19,4.65.57.72.18,1.81.54,2.52.54.75,0,.8-.79.92-1.36.04-.18.19-.3.37-.3h1.07c.18,0,.34.13.38.31l2.41,11.81c.02.12,0,.23-.08.32-.08.09-.18.14-.3.14h-1.07c-.15,0-.27-.07-.34-.2-1.2-2.26-2.29-4.48-4.03-6.4-2.09-2.31-4.61-3.54-7.75-3.54-1.09,0-2.17.17-3.2.51-2.73.9-4.91,2.88-6.39,5.31-1.8,2.94-2.57,6.44-2.57,9.86,0,5.84,1.75,12.37,7.18,15.45,1.91,1.08,4.04,1.57,6.23,1.57,2.33,0,5.4-.71,7.35-2.13Zm31.66-12.54l6.17,10.74c.79,1.38,1.8,3.36,3.12,4.29.56.4,1.17.62,1.84.74,2.69-.45,3.57-2.68,4.5-4.98l10.66-26.13c-1.13-1.46-2.55-1.99-4.43-1.99-.21,0-.38-.17-.38-.38v-1.06c0-.21.17-.38.38-.38h9.21c.16,0,.29.09.35.23l12.82,29.71c.57,1.32,1.36,3.41,2.53,4.3.64.49,1.4.68,2.19.75.66-.06,1.41-.22,1.86-.75.76-.88.67-3.06.67-4.16V8.07c0-1.1.09-3.27-.67-4.15-.61-.71-1.83-.79-2.7-.79-.21,0-.38-.17-.38-.38v-1.06c0-.21.17-.38.38-.38h12.95c.21,0,.38.17.38.38v1.06c0,.21-.17.38-.38.38-.87,0-2.08.07-2.7.78-.76.88-.66,3.06-.66,4.16v28.26h8.08c2.93,0,5.5-.81,7.48-3.05,1.57-1.77,2.43-4.01,3.33-6.16.06-.15.2-.24.35-.24h1.06c.12,0,.22.05.3.14.08.09.1.2.08.32l-2.4,11.8c-.04.18-.19.31-.38.31h-1.07c-.21,0-.38-.17-.38-.38,0-.14,0-.31-.07-.44-.24-.48-1.75-.47-2.18-.47h-35.43c-.21,0-.38-.17-.38-.38v-1.07c0-.21.17-.38.38-.38.6,0,1.9-.02,2.27-.62.51-.83-.67-3.38-1-4.18l-2.91-6.98h-14.48l-2.87,6.98c-.32.77-1.59,3.44-1.13,4.22.32.55,1.55.57,2.08.57.21,0,.38.17.38.38v1.07c0,.21-.17.38-.38.38h-19.93c-.21,0-.38-.17-.38-.38v-1.07c0-.21.17-.38.38-.38.62,0,1.86-.05,2.22-.68.53-.94-.88-3.28-1.34-4.07l-5.52-9.4c-.96.12-1.93.2-2.9.2h-5.36v9.01c0,1.1-.09,3.28.66,4.16.61.71,1.83.78,2.7.78.21,0,.38.17.38.38v1.07c0,.21-.17.38-.38.38h-12.96c-.21,0-.38-.17-.38-.38v-1.07c0-.21.17-.38.38-.38.87,0,2.09-.07,2.7-.78.76-.88.67-3.06.67-4.16V8.07c0-1.1.09-3.27-.67-4.15-.61-.71-1.83-.79-2.7-.79-.21,0-.38-.17-.38-.38v-1.06c0-.21.17-.38.38-.38h16.89c5.19,0,15.99.69,15.99,7.97,0,5.11-4.55,9.21-8.91,11.19ZM109.32,4.35c-.96-.82-1.94-1.2-3.23-1.22-.83.01-1.95.11-2.53.78-.76.88-.66,3.06-.66,4.16v23.32c0,1.1-.09,3.28.66,4.16.59.68,1.72.77,2.54.78.83-.01,1.97-.1,2.56-.78.76-.88.67-3.06.67-4.16V4.35Zm136.88,16.2h6.05c5.75,0,10.67-3.1,10.67-9.29s-5.19-8.14-10.67-8.14h-6.05v17.43Zm35.47,2.17h12.97l-6.08-14.51c-.15-.39-.33-.77-.52-1.14l-6.37,15.65Zm54.64-3.38v-2.14c0-.21.17-.38.38-.38h11.57c.21,0,.38.17.38.38v2.14c0,.21-.17.38-.38.38h-11.57c-.21,0-.38-.17-.38-.38Zm-19.03,35.6v2.89c0,1.17-.12,1.9,1.27,1.9.12,0,.22.1.22.22v.42c0,.12-.1.22-.22.22h-5.14c-.12,0-.22-.1-.22-.22v-.42c0-.12.1-.22.22-.22,1.39,0,1.27-.73,1.27-1.9v-9.26c0-1.17.11-1.9-1.27-1.9-.12,0-.22-.1-.22-.22v-.42c0-.12.1-.22.22-.22h6.71c2.27,0,6.41.38,6.41,3.47,0,1.52-.92,2.91-2.05,3.86-1.43,1.2-3.27,1.8-5.13,1.8h-2.06Zm11.01,3.76l1.3-1.53c.05-.06.13-.09.2-.07.08.01.14.07.16.14.51,1.47,2.25,2.76,3.82,2.76.87,0,2.01-.35,2.01-1.4,0-2.23-7.15-1.82-7.15-5.84,0-2.2,2.43-3.01,4.26-3.01,1.36,0,3.61.65,4.32,1.93.04.08.03.17-.02.24l-1.3,1.52c-.06.07-.14.09-.22.07-.08-.02-.14-.09-.15-.17-.25-1.51-1.69-2.72-3.22-2.72-.87,0-1.57.51-1.57,1.42,0,2.75,6.84,2.11,6.84,5.64,0,2.34-2.26,3.19-4.26,3.19-1.81,0-3.71-.56-5-1.88-.08-.08-.08-.21-.01-.29Zm11.7-7.38v-.19c0-.1.06-.18.16-.21l3.18-.88s.04,0,.06,0h.37c.12,0,.22.1.22.22v6.87c0,1.02-.01,1.95,1.27,1.95.12,0,.22.1.22.22v.18c0,.1-.06.18-.16.21l-3.18.88s-.04,0-.06,0h-.37c-.12,0-.22-.1-.22-.22v-6.87c0-1.02,0-1.95-1.27-1.95-.12,0-.22-.1-.22-.22Zm.84-3.48c0-.86.7-1.54,1.56-1.54s1.54.68,1.54,1.54-.67,1.56-1.54,1.56-1.56-.68-1.56-1.56Zm6.9,8.12c0-3.21,2.57-6.22,5.88-6.22,1.39,0,3.22.64,3.94,1.93.04.08.03.17-.02.24l-1.3,1.52c-.06.07-.14.09-.22.07-.08-.02-.14-.09-.15-.17-.22-1.35-1.06-2.72-2.58-2.72-2.18,0-2.93,2.92-2.93,4.63,0,2.27,1.14,4.25,3.59,4.25,1.33,0,2.48-.8,3.27-1.83.04-.06.11-.09.18-.08.07,0,.13.04.17.1l.22.37c.04.07.04.16,0,.23-1.13,1.64-2.84,2.57-4.85,2.57-2.89,0-5.18-1.93-5.18-4.9Zm12.69,0c0-3.21,2.57-6.22,5.88-6.22,2.88,0,5.19,1.88,5.19,4.87,0,3.19-2.6,6.26-5.89,6.26-2.89,0-5.18-1.93-5.18-4.9Zm12.5-8.87v-.19c0-.1.06-.18.16-.21l3.18-.88s.04,0,.06,0h.37c.12,0,.22.1.22.22v11.1c0,1.02-.01,1.95,1.27,1.95.12,0,.22.1.22.22v.18c0,.1-.06.18-.16.21l-3.18.88s-.04,0-.06,0h-.37c-.12,0-.22-.1-.22-.22v-11.1c0-1.02,0-1.95-1.27-1.95-.12,0-.22-.1-.22-.22Zm7.74,8.87c0-3.21,2.57-6.22,5.88-6.22,2.88,0,5.19,1.88,5.19,4.87,0,3.19-2.6,6.26-5.89,6.26-2.89,0-5.18-1.93-5.18-4.9Zm20.49,2.49c1.71.18,3.75.86,3.75,2.77,0,1.25-.8,2.42-1.73,3.18-1.43,1.17-3.3,1.61-5.11,1.61s-3.96-.88-3.96-3.03c0-1.74,1.76-2.75,3.3-2.91.09,0,.18.04.22.12l.13.28c.03.06.03.12,0,.18-.03.06-.07.1-.13.12-.78.25-1.06.93-1.06,1.7,0,1.63,1.31,2.43,2.82,2.43,1.64,0,3.33-.78,3.33-2.63,0-2.12-1.82-2.93-3.67-3.15-2.38-.28-4.53-1.47-4.53-4.13,0-2.83,2.27-5.25,5.14-5.25.79,0,1.61.14,2.34.46-.23-.52-.39-1.06-.39-1.63,0-.73.47-1.32,1.23-1.32.71,0,1.39.58,1.39,1.32,0,.12-.1.22-.22.22-.09,0-.18.02-.26.06-.74.41-.52,2.08-.11,2.69.4.6.59,1.29.59,2.01,0,2.13-1.21,3.99-3.06,4.89Zm5.73-7.13v-.19c0-.1.06-.18.16-.21l3.18-.88s.04,0,.06,0h.37c.12,0,.22.1.22.22v6.87c0,1.02-.01,1.95,1.27,1.95.12,0,.22.1.22.22v.18c0,.1-.06.18-.16.21l-3.18.88s-.04,0-.06,0h-.37c-.12,0-.22-.1-.22-.22v-6.87c0-1.02,0-1.95-1.27-1.95-.12,0-.22-.1-.22-.22Zm.84-3.48c0-.86.7-1.54,1.56-1.54s1.54.68,1.54,1.54-.67,1.56-1.54,1.56-1.56-.68-1.56-1.56Zm6.9,8.12c0-3.21,2.57-6.22,5.88-6.22,1.4,0,3.22.64,3.94,1.93.04.08.03.17-.02.24l-1.3,1.52c-.06.07-.14.09-.22.07-.08-.02-.14-.09-.15-.17-.22-1.35-1.06-2.72-2.58-2.72-2.18,0-2.93,2.92-2.93,4.63,0,2.27,1.14,4.25,3.59,4.25,1.33,0,2.48-.8,3.27-1.83.04-.06.11-.09.18-.08.07,0,.13.04.17.1l.22.37c.04.07.04.16,0,.23-1.13,1.64-2.84,2.57-4.85,2.57-2.89,0-5.18-1.93-5.18-4.9Zm12.69,0c0-3.21,2.57-6.22,5.88-6.22,2.88,0,5.19,1.88,5.19,4.87,0,3.19-2.6,6.26-5.89,6.26-2.89,0-5.18-1.93-5.18-4.9Zm13.83,2.73l1.3-1.53c.05-.06.13-.09.2-.07.08.01.14.07.16.14.51,1.47,2.25,2.76,3.82,2.76.87,0,2.01-.35,2.01-1.4,0-2.23-7.15-1.82-7.15-5.84,0-2.2,2.43-3.01,4.26-3.01,1.36,0,3.61.65,4.32,1.93.04.08.03.17-.02.24l-1.3,1.52c-.06.07-.14.09-.22.07-.08-.02-.14-.09-.15-.17-.25-1.51-1.69-2.72-3.22-2.72-.87,0-1.57.51-1.57,1.42,0,2.75,6.84,2.11,6.84,5.64,0,2.34-2.26,3.19-4.26,3.19-1.81,0-3.71-.56-5-1.88-.08-.08-.08-.21,0-.29Zm-123.87-4.62h2.34c2.43,0,4.17-1.45,4.17-3.96s-1.85-3.46-4.17-3.46h-2.34v7.42Zm45.74,1.17c0,1.73.7,4.75,2.93,4.75s2.95-3.01,2.95-4.75-.77-4.63-2.95-4.63-2.93,2.92-2.93,4.63Zm20.24,0c0,1.73.7,4.75,2.93,4.75s2.95-3.01,2.95-4.75-.77-4.63-2.95-4.63-2.93,2.92-2.93,4.63Zm13.83-.83c0,1.33.57,3.83,2.27,3.83.63,0,1.16-.56,1.46-1.05.6-.98.78-2.27.78-3.4,0-1.33-.65-3.18-2.25-3.18-1.92,0-2.27,2.33-2.27,3.81Zm32.82.83c0,1.73.7,4.75,2.93,4.75s2.95-3.01,2.95-4.75-.77-4.63-2.95-4.63-2.93,2.92-2.93,4.63Zm-230.66.72h.42c.08,0,.15.04.19.11,1.33,2.5,3.49,3.91,6.37,3.91,1.52,0,3.26-.55,3.26-2.34,0-3.81-10.16-2.21-10.16-7.86,0-1.1.51-2.14,1.31-2.88,1.09-1.02,2.57-1.39,4.03-1.39.88,0,1.75.07,2.62.22.34.06.89.22,1.22.22.26,0,.26-.3.31-.49.02-.1.11-.17.21-.17h.42c.1,0,.19.07.21.17l.95,4.69c.01.07,0,.13-.04.18-.04.05-.1.08-.17.08h-.42c-.08,0-.15-.04-.19-.11-1.26-2.37-2.72-3.91-5.62-3.91-1.4,0-2.89.79-2.89,2.34,0,4,10.2,2.73,10.2,7.77,0,3.28-2.97,4.37-5.82,4.37-.56,0-1.13-.05-1.69-.11-.59-.06-1.17-.14-1.76-.22-.32-.04-.74-.12-1.07-.12-.25,0-.26.3-.3.49-.02.1-.11.17-.21.17h-.42c-.1,0-.19-.07-.21-.17l-.96-4.69c-.01-.07,0-.13.04-.18.04-.05.1-.08.17-.08Zm17.88,1c.47,1.55,1.69,2.53,3.34,2.53,1.33,0,2.48-.8,3.27-1.83.05-.06.11-.09.18-.08.07,0,.13.04.17.1l.22.37c.04.07.04.16,0,.23-1.13,1.64-2.83,2.57-4.85,2.57-2.89,0-5.18-1.93-5.18-4.9,0-3.21,2.57-6.22,5.88-6.22,2.21,0,4.14,1.32,4.4,3.59.01.09-.04.18-.12.22l-7.31,3.42Zm13.78-5.86c.85-.82,1.97-1.36,3.16-1.36,1.13,0,2.3.86,2.42,2.01,0,.06-.01.12-.05.16l-1.3,1.52c-.06.07-.15.09-.24.06-.09-.03-.14-.11-.14-.2,0-1-.75-2.23-1.86-2.23-.9,0-1.99.96-1.99,1.86v4.19c0,1.02-.01,1.95,1.27,1.95.12,0,.22.1.22.22v.18c0,.1-.06.18-.16.21l-3.18.88s-.04,0-.06,0h-.37c-.12,0-.22-.1-.22-.22v-6.87c0-1.02,0-1.95-1.27-1.95-.12,0-.22-.1-.22-.22v-.19c0-.1.06-.18.16-.21l3.18-.88s.04,0,.06,0h.37c.12,0,.22.1.22.22v.85Zm14.56,6.45l.42-.84c.38-.76,2.08-4.47,1.15-5.19-.1-.08-.22-.1-.35-.1s-.22-.1-.22-.22v-.19c0-.1.06-.18.16-.21l2.78-.77s.04,0,.06,0h.37c.08,0,.14.04.18.1.04.07.04.14,0,.21l-5.07,10.1c-.04.07-.11.12-.19.12h-.44c-.09,0-.16-.05-.2-.13l-3.02-6.87c-.5-1.14-1.21-2.04-2.56-2.04-.12,0-.22-.1-.22-.22v-.19c0-.1.06-.18.16-.21l3.18-.88s.04,0,.06,0h.37c.09,0,.16.05.2.13l3.18,7.38Zm6.5-6.23v-.19c0-.1.06-.18.16-.21l3.18-.88s.04,0,.06,0h.37c.12,0,.22.1.22.22v6.87c0,1.02-.01,1.95,1.27,1.95.12,0,.22.1.22.22v.18c0,.1-.06.18-.16.21l-3.18.88s-.04,0-.06,0h-.37c-.12,0-.22-.1-.22-.22v-6.87c0-1.02,0-1.95-1.27-1.95-.12,0-.22-.1-.22-.22Zm.84-3.48c0-.86.7-1.54,1.56-1.54s1.54.68,1.54,1.54-.67,1.56-1.54,1.56-1.56-.68-1.56-1.56Zm6.9,8.12c0-3.21,2.57-6.22,5.88-6.22,1.4,0,3.22.64,3.94,1.93.04.08.03.17-.02.24l-1.3,1.52c-.06.07-.14.09-.22.07-.08-.02-.14-.09-.15-.17-.22-1.35-1.06-2.72-2.58-2.72-2.18,0-2.93,2.92-2.93,4.63,0,2.27,1.14,4.25,3.59,4.25,1.33,0,2.48-.8,3.27-1.83.04-.06.11-.09.18-.08.07,0,.13.04.17.1l.22.37c.04.07.04.16,0,.23-1.13,1.64-2.84,2.57-4.85,2.57-2.89,0-5.18-1.93-5.18-4.9Zm12.31-4.65v-.19c0-.1.06-.18.16-.21l3.18-.88s.04,0,.06,0h.37c.12,0,.22.1.22.22v6.87c0,1.02-.01,1.95,1.27,1.95.12,0,.22.1.22.22v.18c0,.1-.06.18-.16.21l-3.18.88s-.04,0-.06,0h-.37c-.12,0-.22-.1-.22-.22v-6.87c0-1.02,0-1.95-1.27-1.95-.12,0-.22-.1-.22-.22Zm.84-3.48c0-.86.7-1.54,1.56-1.54s1.54.68,1.54,1.54-.67,1.56-1.54,1.56-1.56-.68-1.56-1.56Zm6.9,8.12c0-3.21,2.57-6.22,5.88-6.22,2.88,0,5.19,1.88,5.19,4.87,0,3.19-2.6,6.26-5.89,6.26-2.89,0-5.18-1.93-5.18-4.9Zm13.83,2.73l1.3-1.53c.05-.06.13-.09.2-.07.08.01.14.07.16.14.51,1.47,2.25,2.76,3.82,2.76.87,0,2.01-.35,2.01-1.4,0-2.23-7.15-1.82-7.15-5.84,0-2.2,2.43-3.01,4.26-3.01,1.36,0,3.61.65,4.32,1.93.04.08.03.17-.03.24l-1.3,1.52c-.06.07-.14.09-.22.07-.08-.02-.14-.09-.15-.17-.25-1.51-1.69-2.72-3.22-2.72-.87,0-1.57.51-1.57,1.42,0,2.75,6.84,2.11,6.84,5.64,0,2.34-2.26,3.19-4.26,3.19-1.81,0-3.71-.56-5-1.88-.08-.08-.08-.21,0-.29Zm-76.66-2.55l5.1-2.37c-.13-1.21-.81-3.16-2.24-3.16-2.18,0-2.93,2.92-2.93,4.63,0,.3.02.6.06.9Zm65.43-.9c0,1.73.7,4.75,2.93,4.75s2.95-3.01,2.95-4.75-.77-4.63-2.95-4.63-2.93,2.92-2.93,4.63Zm-236.64.74s.05.09.08.13h0s.03.04.03.04l.03.04h0s.03.04.03.04h0s.03.04.03.04h0s.06.08.06.08l.06.08h0s.03.04.03.04h0s.03.04.03.04h0s.03.04.03.04h0s.03.04.03.04h0s.07.08.11.11h0s.04.04.04.04h0c.07.07.15.15.24.22l.04.04s.08.07.13.1l.04.03.04.03h0s.04.03.04.03h0s.09.07.14.1h0s.1.06.14.1h0s.05.03.05.03h0s.05.03.05.03h0c.05.03.1.06.15.09h0s.11.06.11.06c.12.07.25.13.39.2.15.07.32.14.5.2h0c.11.04.22.08.34.11l.07.02h0l.07.02h0s.07.02.07.02h0s.08.02.08.02h0s.08.02.08.02l.16.04.16.04h0c.08.02.16.04.25.05h0s.08.02.08.02h0c.08.02.17.03.26.05h.09s.09.03.09.03h.09s.18.04.18.04h.09s.09.03.09.03h0s.1.01.1.01h0c.1.01.19.02.29.03h.1s0,.01,0,.01h.1s.1.02.1.02h.1s.1.02.1.02h.1s0,0,0,0h.11s.11.02.11.02h.11s.11.01.11.01h0s.11,0,.11,0h.11s.11.01.11.01h.11s.11.01.11.01h0s.12,0,.12,0h.12s.12,0,.12,0h.12s.24,0,.24,0h0s.12,0,.12,0h0s.12,0,.12,0h0s.12,0,.12,0h0v1.59h0s-25.94,0-25.94,0h0v-1.59h0s.12,0,.12,0h0s.12,0,.12,0h.12s.12,0,.12,0h0s.12,0,.12,0h.12s.12,0,.12,0h0s.12,0,.12,0h.12s0,0,0,0h.11s.11-.01.11-.01h0s.11,0,.11,0h.11s0,0,0,0h.11s.11-.01.11-.01h0s.11,0,.11,0h.11s.11-.02.11-.02h.1s0,0,0,0h.1s0,0,0,0h.1s0,0,0,0h.1s0,0,0,0h.1s0-.01,0-.01h.1s.1-.02.1-.02h0s.1-.01.1-.01h.1s.1-.02.1-.02h.09s.09-.03.09-.03h0s.09-.01.09-.01h.09s0-.01,0-.01h.09s.09-.03.09-.03h0s.09-.02.09-.02h.09s0-.02,0-.02l.09-.02h0l.09-.02.08-.02h0s.08-.02.08-.02l.08-.02.08-.02h0l.08-.02h0s.08-.02.08-.02h0s.08-.02.08-.02h0s.08-.02.08-.02l.08-.02h0s.07-.02.07-.02l.07-.02h0s.07-.02.07-.02h0s.07-.02.07-.02h0s.07-.02.07-.02h0s.07-.02.07-.02h0s.07-.02.07-.02l.07-.02h0s.07-.02.07-.02h0s.07-.02.07-.02h0s.06-.02.06-.02h0s.06-.02.06-.02h0l.06-.02.06-.02h0s.06-.03.06-.03h0s.06-.03.06-.03h0s.06-.03.06-.03h0s.06-.03.06-.03h0s.06-.03.06-.03h0l.06-.03h0s.06-.03.06-.03h0s.06-.03.06-.03h0s.05-.03.05-.03h0s.05-.03.05-.03h0s.05-.03.05-.03h0s.05-.03.05-.03h0l.05-.03h0s.05-.03.05-.03h0l.05-.03.05-.03h0s.05-.03.05-.03h0s.05-.03.05-.03h0s.05-.03.05-.03h0s.05-.03.05-.03l.05-.03.05-.03h0s.05-.03.05-.03h0s.05-.03.05-.03h0s.04-.03.04-.03h0s.04-.03.04-.03h0s.04-.03.04-.03l.04-.03h0s.04-.03.04-.03h0s.04-.04.04-.04h0l.04-.04h0s.04-.04.04-.04h0s.04-.04.04-.04h0s.04-.04.04-.04h0s.04-.04.04-.04h0s.04-.04.04-.04h0l.04-.04h0s.04-.04.04-.04h0s.04-.04.04-.04l.04-.04h0s.03-.04.03-.04h0s.03-.04.03-.04h0s.03-.04.03-.04h0s.03-.04.03-.04h0l.03-.04h0s.03-.04.03-.04l.03-.04h0s.03-.04.03-.04h0l.03-.04.03-.04.03-.04h0s.03-.04.03-.04l.03-.04h0s.03-.04.03-.04l.03-.04h0s.03-.04.03-.04l.02-.04h0s.02-.04.02-.04h0s.02-.04.02-.04h0s.02-.04.02-.04h0s.02-.05.02-.05l.02-.05h0s.02-.05.02-.05h0s.02-.05.02-.05h0l.02-.05h0s.02-.05.02-.05h0s.02-.05.02-.05l.02-.05.02-.05h0s.02-.05.02-.05l.02-.05.02-.05h0s.02-.06.02-.06h0s.02-.06.02-.06l.02-.06h0s.02-.06.02-.06h0s.02-.06.02-.06h0s.01-.07.01-.07h0s.01-.07.01-.07h0s.01-.07.01-.07h0s.01-.07.01-.07h0s.01-.07.01-.07h0s.01-.07.01-.07h0s.01-.08.01-.08h0s.01-.08.01-.08h0s.01-.08.01-.08h0s.01-.08.01-.08h0s.01-.08.01-.08h0s.01-.08.01-.08h0s.01-.09.01-.09h0s.01-.09.01-.09h0s.01-.09.01-.09h0s.01-.09.01-.09h0s.01-.09.01-.09v-.09s.01,0,.01,0v-.1s.02-.1.02-.1h0s0-.1,0-.1v-.1s0,0,0,0v-.1s.02-.1.02-.1h0s0-.11,0-.11v-.11s.02-.11.02-.11h0s0-.11,0-.11h0s0-.11,0-.11h0s0-.12,0-.12h0s0-.12,0-.12h0s0-.12,0-.12v-.12s.01-.12.01-.12h0s0-.12,0-.12v-.13s.01-.13.01-.13h0s0-.13,0-.13h0s0-.13,0-.13v-.13s0,0,0,0v-.13s0,0,0,0v-.14s0,0,0,0v-.14s0,0,0,0v-.14s0,0,0,0v-.14s0-.14,0-.14h0s0-.14,0-.14h0s0-.15,0-.15h0s0-.15,0-.15h0s0-.15,0-.15v-.15s0-.15,0-.15h0s0-.16,0-.16h0s0-.16,0-.16h0v-30.42c-5.04.06-8.89.95-11.55,2.68-2.74,1.79-4.57,3.97-5.49,6.54-.91,2.57-1.51,6.85-1.78,12.84-.27,6.65-1.76,11.61-4.47,14.86-2.71,3.25-7.15,4.87-13.34,4.87v-2.22c2.22-.16,3.73-1.02,4.52-2.6.8-1.57,1.2-4.91,1.2-10.01,0-7.47.79-13.24,2.36-17.31,1.58-4.07,4.74-7.37,9.48-9.89,4.65-2.49,11-3.84,19.05-4.07v-1.06s0-.16,0-.16v-.15s0-.15,0-.15v-.15s0-.15,0-.15v-.15s0-.14,0-.14v-.14s0-.14,0-.14v-.14s0-.14,0-.14h0s0-.14,0-.14v-.13s0-.13,0-.13v-.13s0,0,0,0v-.13s0-.13,0-.13v-.13s-.01-.12-.01-.12v-.12s0,0,0,0v-.12s0,0,0,0v-.12s0,0,0,0v-.12s-.01-.12-.01-.12v-.11s-.01-.11-.01-.11v-.11s-.02-.11-.02-.11v-.11s-.02-.1-.02-.1h0s0-.1,0-.1h0s0-.1,0-.1v-.1s0,0,0,0v-.1s-.02-.1-.02-.1h0s-.01-.09-.01-.09h0s-.01-.09-.01-.09v-.09s-.01,0-.01,0v-.09s-.01,0-.01,0v-.09s-.02-.09-.02-.09v-.08s-.01,0-.01,0v-.08s-.01,0-.01,0v-.08s-.01,0-.01,0v-.08s-.03-.08-.03-.08v-.08s-.03-.07-.03-.07v-.07s-.01,0-.01,0v-.07s-.01,0-.01,0v-.07s-.03-.07-.03-.07v-.06s-.03-.06-.03-.06l-.02-.06h0s-.02-.06-.02-.06l-.02-.06-.02-.06-.02-.05-.02-.05-.02-.05-.02-.05-.02-.05-.02-.05-.02-.05-.02-.05-.02-.05-.02-.05-.02-.04-.02-.04-.02-.04-.02-.04-.02-.04h0l-.02-.04-.03-.04-.03-.04-.03-.04h0l-.03-.04-.03-.04h0l-.03-.04h0l-.03-.04h0l-.03-.04h0s-.03-.04-.03-.04l-.03-.04h0s-.03-.04-.03-.04h0l-.03-.04-.03-.04h0s-.03-.04-.03-.04h0l-.03-.04-.03-.04h0l-.04-.04-.04-.04-.04-.04h0s-.04-.04-.04-.04h0l-.04-.04-.04-.04h0l-.04-.04h0s-.04-.04-.04-.04h0s-.04-.04-.04-.04h0s-.04-.04-.04-.04h0s-.04-.04-.04-.04h0s-.04-.04-.04-.04l-.04-.04h0l-.04-.03h0l-.04-.03h0l-.04-.03h0s-.05-.03-.05-.03h0s-.05-.03-.05-.03h0s-.05-.03-.05-.03h0s-.05-.03-.05-.03h0s-.05-.03-.05-.03h0l-.05-.03h0l-.05-.03h0s-.05-.03-.05-.03h0l-.05-.03h0s-.05-.03-.05-.03h0l-.05-.03-.05-.03h0s-.05-.03-.05-.03h0s-.05-.03-.05-.03l-.05-.03h0l-.06-.03h0s-.06-.03-.06-.03h0l-.06-.03h0l-.06-.03h0s-.06-.03-.06-.03h0s-.06-.03-.06-.03h0l-.06-.03h0s-.06-.03-.06-.03h0l-.06-.03h0l-.06-.03h0l-.06-.03h0s-.06-.03-.06-.03h0s-.06-.03-.06-.03h0s-.07-.02-.07-.02h0s-.07-.02-.07-.02h0l-.07-.02h0s-.07-.02-.07-.02h0s-.07-.02-.07-.02h0s-.07-.02-.07-.02l-.07-.02-.07-.02-.07-.02-.08-.02-.08-.02h0l-.08-.02h0l-.08-.02h0l-.08-.02h0l-.08-.02h0s-.08-.02-.08-.02h0l-.08-.02-.08-.02h0l-.08-.02h0l-.08-.02-.09-.02h0l-.09-.02h0l-.09-.02h0s-.09-.01-.09-.01h-.09s-.09-.03-.09-.03h-.09s-.09-.03-.09-.03h-.09s0-.01,0-.01h-.09s0-.01,0-.01h-.1s0-.01,0-.01h-.1s0-.01,0-.01h-.1s-.1-.02-.1-.02h-.1s0,0,0,0h-.1s-.1-.02-.1-.02h-.1s-.1-.02-.1-.02h-.11s-.11-.02-.11-.02h-.11s-.11-.01-.11-.01h-.11s-.11-.01-.11-.01h-.11s0,0,0,0h-.11s-.11,0-.11,0h-.11s0,0,0,0h-.11s-.12,0-.12,0h-.12s-.12,0-.12,0h-.12s-.12,0-.12,0h-.12s-.12,0-.12,0v-1.59h25.94v1.59h-.12s-.12,0-.12,0h-.12s-.12,0-.12,0h-.12s-.11,0-.11,0h-.11s-.11,0-.11,0h-.11s-.11,0-.11,0h-.11s-.11.01-.11.01h-.11s-.11.01-.11.01h-.11s-.1.01-.1.01h-.1s0,0,0,0h-.1s-.1.02-.1.02h-.1s-.1.02-.1.02h-.1s-.1.02-.1.02h-.1s-.1.02-.1.02h-.1s-.09.02-.09.02h-.09s-.09.02-.09.02h-.09s-.09.02-.09.02h-.09s-.09.03-.09.03h-.09s-.09.03-.09.03h-.09s0,.01,0,.01h-.08s-.08.03-.08.03h0l-.08.02-.08.02-.08.02-.08.02-.08.02h0l-.08.02-.08.02-.08.02h0l-.08.02-.07.02-.07.02h0l-.07.02h0l-.07.02-.07.02-.07.02h0l-.07.02-.07.02h0l-.07.02-.07.02h0l-.06.02h0l-.06.02-.06.02h0l-.06.02-.06.02h0l-.06.02-.06.03h0l-.06.03h0l-.06.03-.06.03h0l-.06.03h0l-.06.03h0l-.05.03h0l-.05.03h0l-.05.03h0l-.05.03h0l-.05.03-.05.03h0l-.05.03-.05.03h0l-.05.03-.05.03h0l-.05.03h0l-.05.03h0l-.05.03h0l-.05.03h0l-.05.03h0l-.05.03h0l-.05.03-.04.03-.04.03h0l-.04.03h0l-.04.03h0l-.04.03h0l-.04.03-.04.04-.04.04-.04.04-.04.04-.04.04h0l-.04.04h0l-.04.04-.04.04h0l-.04.04-.04.04h0l-.03.04h0l-.03.04h0l-.03.04-.03.04-.03.04-.03.04h0l-.03.04h0l-.03.04h0l-.03.04h0l-.03.04h0l-.03.04h0l-.03.04h0l-.03.04h0l-.03.04h0l-.03.04h0l-.03.04h0l-.03.04h0l-.02.04-.02.05h0l-.02.05h0l-.02.05-.02.05-.02.05h0l-.02.05-.02.05h0l-.02.05-.02.05-.02.05h0l-.02.05h0l-.02.05h0l-.02.06h0l-.02.06h0l-.02.06-.02.06-.02.06h0l-.02.06-.02.07-.02.07-.02.07h0l-.02.07v.07s-.03.07-.03.07h0v.08h-.01v.08s-.03.08-.03.08v.08s-.03.08-.03.08v.09s-.03.09-.03.09v.09s-.02.09-.02.09v.09s-.02.09-.02.09v.1s-.02.1-.02.1h0v.1s-.02.1-.02.1v.1s-.02.1-.02.1v.11s-.02.11-.02.11v.11s-.02.11-.02.11v.11s-.02.12-.02.12v.12s-.01.12-.01.12v.12s-.01.12-.01.12v.12s-.01.13-.01.13v.13s-.01.13-.01.13v.13s0,.13,0,.13v.13s0,.14,0,.14v.14s0,.14,0,.14v.14s0,.14,0,.14v.15s0,.15,0,.15v.15s0,.15,0,.15v.15s0,.15,0,.15v.16s0,.16,0,.16v1.14c8.19.21,14.64,1.57,19.35,4.08,4.75,2.53,7.91,5.82,9.48,9.89,1.58,4.07,2.36,9.83,2.36,17.31,0,5.09.4,8.43,1.2,10.01.79,1.57,2.3,2.44,4.52,2.6v2.22c-6.19,0-10.63-1.62-13.34-4.87-2.71-3.25-4.19-8.21-4.47-14.86-.27-5.99-.87-10.27-1.78-12.84-.91-2.57-2.74-4.75-5.48-6.54-2.71-1.77-6.66-2.66-11.85-2.68v30.34h0v.16h0s0,.16,0,.16h0s0,.15,0,.15v.15s0,0,0,0v.15s0,.15,0,.15h0s0,.15,0,.15h0s0,.14,0,.14v.14s0,0,0,0v.14s0,.14,0,.14h0s0,.14,0,.14v.14s0,0,0,0v.13s0,.13,0,.13v.13s0,0,0,0v.13s0,0,0,0v.13s.01.13.01.13h0s0,.12,0,.12h0s0,.12,0,.12h0s0,.12,0,.12h0s0,.12,0,.12h0s0,.12,0,.12h0s0,.12,0,.12h0s0,.11,0,.11h0s0,.11,0,.11h0s0,.11,0,.11h0s0,.11,0,.11v.11s0,0,0,0v.1s.02.1.02.1h0s0,.1,0,.1h0s0,.1,0,.1h0s0,.1,0,.1v.1s.02.09.02.09h0s.01.09.01.09h0s.01.09.01.09v.09s.01,0,.01,0v.09s.01,0,.01,0v.09s.01,0,.01,0v.08s.01,0,.01,0v.08s.01,0,.01,0v.08s.03.08.03.08v.08s.01,0,.01,0v.07s.01,0,.01,0v.07s.01,0,.01,0v.07s.01,0,.01,0v.07s.03.07.03.07h0s.01.07.01.07h0s.02.06.02.06h0s.02.06.02.06l.02.06.02.06h0s.02.06.02.06l.02.06.02.05h0s.02.05.02.05h0s.02.05.02.05h0s.02.05.02.05l.02.05.02.05h0s.02.05.02.05h0s.02.05.02.05h0s.02.05.02.05h0s.02.05.02.05l.04.09h0s.02.04.02.04h0s.02.04.02.04h0s.05.09.05.09l.03.04h0Zm353.98-19.67c.83-.01,1.97-.1,2.56-.78.76-.88.67-3.06.67-4.16V8.07c0-1.1.09-3.27-.67-4.15-.59-.68-1.72-.77-2.55-.79-.84.01-1.97.1-2.56.79-.76.88-.67,3.05-.67,4.15v23.32c0,1.1-.09,3.27.67,4.16.59.68,1.72.77,2.55.78Z"/>
  </g>
</svg>