<?xml version="1.0" encoding="UTF-8"?>
<svg version="1.1" xmlns="http://www.w3.org/2000/svg" width="820" height="260">
<path d="M0 0 C1.12174118 -0.025746 2.24348236 -0.051492 3.3992157 -0.07801819 C8.54872076 -0.16196841 13.69817455 -0.22812533 18.84814453 -0.27441406 C21.56577232 -0.30112433 24.28163737 -0.34978848 26.99853516 -0.41796875 C30.90882556 -0.51584807 34.81829203 -0.54802463 38.72973633 -0.57592773 C39.94243698 -0.61408096 41.15513763 -0.65223419 42.40458679 -0.69154358 C50.62547485 -0.67258358 50.62547485 -0.67258358 53.78358459 1.89332581 C55.35556366 3.93696331 56.57531387 5.94837099 57.74926758 8.24047852 C58.29977783 9.14677002 58.85028809 10.05306152 59.41748047 10.98681641 C59.84794678 11.80400146 60.27841309 12.62118652 60.72192383 13.46313477 C61.22183838 14.40116943 61.72175293 15.3392041 62.23681641 16.30566406 C62.75655029 17.29477783 63.27628418 18.2838916 63.81176758 19.30297852 C64.96102863 21.45757508 66.1121159 23.61119838 67.26489258 25.76391602 C67.84561523 26.84898438 68.42633789 27.93405273 69.0246582 29.05200195 C71.63719008 33.8820793 74.34379291 38.6566665 77.06176758 43.42797852 C82.02862125 52.16033333 86.90877309 60.93772151 91.74926758 69.74047852 C97.14821485 79.55741854 102.60727335 89.33746051 108.13867188 99.08056641 C113.43287374 108.41743116 118.60404857 117.82086608 123.74926758 127.24047852 C124.40926758 127.24047852 125.06926758 127.24047852 125.74926758 127.24047852 C125.75073414 126.61025661 125.7522007 125.98003471 125.7537117 125.33071518 C125.7907565 109.99902586 125.84973993 94.6676019 125.93317032 79.33610153 C125.97298707 71.92189926 126.00536607 64.50780353 126.02026367 57.09350586 C126.03326664 50.63151055 126.06019626 44.16974941 126.10388064 37.70788598 C126.12652643 34.28602055 126.14217643 30.86444427 126.14115143 27.44249725 C126.14350704 23.62316972 126.17047552 19.80476498 126.20336914 15.9855957 C126.19582359 14.2819561 126.19582359 14.2819561 126.18812561 12.54389954 C126.20203842 11.50345993 126.21595123 10.46302032 126.23028564 9.39105225 C126.2358164 8.03601656 126.2358164 8.03601656 126.24145889 6.65360641 C126.91890709 3.43434452 128.17787552 2.2369583 130.74926758 0.24047852 C133.6591225 -0.16939984 136.18393212 -0.34451813 139.09301758 -0.32592773 C139.89912476 -0.33212631 140.70523193 -0.33832489 141.5357666 -0.3447113 C143.2369669 -0.35180273 144.9382367 -0.34864719 146.6394043 -0.3359375 C149.24112644 -0.32206489 151.83925512 -0.35615396 154.44067383 -0.39428711 C156.09562262 -0.3952383 157.75057592 -0.39337949 159.40551758 -0.38842773 C160.18165405 -0.40168594 160.95779053 -0.41494415 161.75744629 -0.42860413 C165.33995768 -0.36689055 167.28191375 -0.19226778 169.95379543 2.28176117 C172.20005276 5.98331708 172.31067714 9.00908743 172.26393127 13.21105957 C172.2708768 14.00809658 172.27782233 14.80513358 172.28497833 15.62632322 C172.30325923 18.29421781 172.29298129 20.96122425 172.28271484 23.62915039 C172.28977273 25.54293992 172.29851719 27.45672386 172.30882263 29.37049866 C172.33133969 34.56674491 172.32837164 39.76268691 172.31950116 44.95896339 C172.3143945 49.29566187 172.32168113 53.632303 172.32897323 57.96899557 C172.34597925 68.19804989 172.34239885 78.42695505 172.32568359 88.65600586 C172.30875548 99.21313545 172.32460483 109.76985178 172.35690647 120.32693624 C172.38358352 129.38864247 172.39088364 138.4502199 172.38239139 147.51196146 C172.37745743 152.92521747 172.37970346 158.3382247 172.40017891 163.75144958 C172.41850672 168.84055087 172.41261273 173.92905645 172.38797951 179.01812553 C172.38296269 180.886593 172.3864839 182.75510564 172.39912796 184.62353706 C172.41501703 187.17301231 172.40014859 189.72051589 172.37745667 192.26989746 C172.38929239 193.01065757 172.40112812 193.75141768 172.41332251 194.51462507 C172.34233225 198.43578706 171.86037768 200.10224774 169.37123775 203.19895744 C166.40378022 205.50948223 165.10436875 205.8713342 161.39575195 205.88745117 C160.35116821 205.90321198 159.30658447 205.91897278 158.23034668 205.93521118 C157.11252808 205.92509003 155.99470947 205.91496887 154.84301758 205.90454102 C153.6855603 205.90932465 152.52810303 205.91410828 151.33557129 205.91903687 C148.8912622 205.92243552 146.44690763 205.91323577 144.00268555 205.89233398 C140.2622335 205.86557129 136.52478258 205.89208656 132.78442383 205.92407227 C130.40811512 205.92076817 128.03180829 205.91436194 125.65551758 205.90454102 C124.53769897 205.91466217 123.41988037 205.92478333 122.26818848 205.93521118 C114.54895623 205.81874249 114.54895623 205.81874249 110.69848633 203.03442383 C108.83386684 200.36174028 107.16126348 197.76336808 105.65551758 194.87329102 C105.10718262 193.83519287 104.55884766 192.79709473 103.99389648 191.72753906 C103.41816895 190.61805908 102.84244141 189.5085791 102.24926758 188.36547852 C100.99865051 185.99850905 99.74629404 183.63254723 98.49145508 181.26782227 C98.17614838 180.67171646 97.86084167 180.07561066 97.53598022 179.46144104 C94.58314538 173.89170753 91.49825423 168.40299663 88.37426758 162.92797852 C83.47371773 154.31857954 78.65143307 145.66871387 73.87426758 136.99047852 C73.19639126 135.7595914 72.51849411 134.52871576 71.84057617 133.29785156 C70.82192717 131.44825085 69.80328912 129.59864413 68.78475952 127.74897766 C62.80629528 116.8942517 56.79670412 106.05695049 50.74926758 95.24047852 C50.16000488 94.18570313 49.57074219 93.13092773 48.96362305 92.04418945 C47.29472121 89.06410741 45.61752388 86.08888735 43.93676758 83.11547852 C43.18991699 81.78129883 43.18991699 81.78129883 42.42797852 80.42016602 C41.97068359 79.61579102 41.51338867 78.81141602 41.04223633 77.98266602 C40.447052 76.92861572 40.447052 76.92861572 39.83984375 75.85327148 C38.83073736 74.07687133 38.83073736 74.07687133 36.74926758 73.24047852 C36.75203296 73.8791643 36.75479834 74.51785007 36.75764751 75.17588997 C36.82393499 90.72508563 36.87356156 106.27423205 36.90470409 121.82353401 C36.92016515 129.34310103 36.94124004 136.86257365 36.97558594 144.38208008 C37.0055117 150.93699675 37.02484812 157.49184506 37.03153306 164.04682815 C37.03543997 167.51684081 37.04460565 170.98665791 37.06645775 174.45660782 C37.09066885 178.3326811 37.09123552 182.20856401 37.08984375 186.0847168 C37.10062958 187.23198746 37.11141541 188.37925812 37.12252808 189.56129456 C37.10075836 195.15690776 37.06657262 199.47717681 33.74926758 204.24047852 C30.61444071 205.80789195 27.26224857 205.42446775 23.81958008 205.44360352 C23.03283905 205.44930359 22.24609802 205.45500366 21.43551636 205.46087646 C19.76944322 205.47032884 18.10335136 205.47686139 16.43725586 205.48071289 C13.89118735 205.49041405 11.34592764 205.52143229 8.80004883 205.55297852 C7.18156404 205.55950911 5.56307348 205.56475936 3.94458008 205.56860352 C3.18404327 205.58095032 2.42350647 205.59329712 1.6399231 205.60601807 C-1.55985048 205.59256852 -3.86299928 205.45146346 -6.70043945 203.9074707 C-9.97682174 200.3844568 -9.39646477 196.09722305 -9.39117432 191.58633423 C-9.39414544 190.79917318 -9.39711656 190.01201213 -9.40017772 189.20099771 C-9.40887179 186.55480485 -9.41037356 183.90865719 -9.41186523 181.26245117 C-9.41649286 179.36866662 -9.42151745 177.47488299 -9.4269104 175.58110046 C-9.44004066 170.43028057 -9.44648044 165.27947372 -9.45092106 160.1286397 C-9.45385042 156.9122287 -9.45795494 153.69582128 -9.46242523 150.47941208 C-9.47610103 140.42059235 -9.48576762 130.36178079 -9.48962712 120.30295241 C-9.49410999 108.68271707 -9.51166816 97.06259923 -9.54062772 85.44239962 C-9.56222456 76.46568739 -9.57233031 67.48900827 -9.57366824 58.51227033 C-9.57471759 53.14821635 -9.58065305 47.78427281 -9.59848785 42.42024612 C-9.61493428 37.37564365 -9.61714074 32.33123506 -9.60834885 27.28661537 C-9.60757666 25.43426686 -9.61194496 23.58190807 -9.6218071 21.72958565 C-9.63447443 19.20235469 -9.62867846 16.67581584 -9.6182251 14.14859009 C-9.6262815 13.41424763 -9.63433791 12.67990518 -9.64263844 11.92330992 C-9.56893249 4.31318061 -7.55751916 0.16686592 0 0 Z " fill="#1F001F" transform="translate(88.250732421875,1.759521484375)"/>
<path d="M0 0 C2.46139834 1.73745765 4.47035093 3.58357987 6.5234375 5.78125 C6.63300781 5.08257812 6.74257813 4.38390625 6.85546875 3.6640625 C7.01402344 2.75398438 7.17257812 1.84390625 7.3359375 0.90625 C7.48675781 0.00132813 7.63757813 -0.90359375 7.79296875 -1.8359375 C8.5234375 -4.21875 8.5234375 -4.21875 11.5234375 -6.21875 C14.2218675 -6.4506088 16.81471455 -6.57069206 19.515625 -6.58984375 C20.29857941 -6.59887222 21.08153381 -6.6079007 21.88821411 -6.61720276 C23.54408954 -6.63170339 25.20002224 -6.64059154 26.85595703 -6.64428711 C29.38282415 -6.65617654 31.90724261 -6.70535206 34.43359375 -6.75585938 C36.04425894 -6.76532492 37.6549391 -6.77255933 39.265625 -6.77734375 C40.01786346 -6.79687607 40.77010193 -6.81640839 41.5451355 -6.83653259 C45.26369113 -6.80473183 47.2369484 -6.43641042 50.22321987 -4.16758728 C53.05573692 -0.5363518 53.22417655 2.14059569 53.15162659 6.56201172 C53.15872097 7.33863096 53.16581536 8.11525021 53.17312473 8.91540337 C53.19070915 11.51442012 53.17259872 14.1119422 53.15454102 16.7109375 C53.15967968 18.57546673 53.16696057 20.4399911 53.17622375 22.30450439 C53.19475262 27.36654871 53.18178973 32.42806694 53.16213346 37.49008942 C53.14575797 42.78620525 53.15455832 48.08228748 53.15965271 53.37841797 C53.16417489 62.27254651 53.14829604 71.16646482 53.12036133 80.06054688 C53.08830893 90.34498322 53.0883248 100.62904038 53.1055761 110.91350365 C53.12143696 120.80470919 53.11471044 130.69577564 53.09763908 140.5869751 C53.09076445 144.79742126 53.09180529 149.00775607 53.09918404 153.21820068 C53.10684218 158.17593701 53.09473602 163.13324155 53.06733513 168.09090424 C53.06044528 169.91098499 53.06035974 171.73110602 53.06755066 173.55118561 C53.07623271 176.03476923 53.0603116 178.51701646 53.0381012 181.00048828 C53.04634196 181.72179365 53.05458273 182.44309902 53.06307322 183.18626213 C53.00516104 186.69168812 52.56778076 188.70817238 50.73469448 191.72909546 C47.45592967 194.77194944 44.17010063 194.46185885 39.92578125 194.375 C38.67976891 194.37506042 38.67976891 194.37506042 37.40858459 194.37512207 C35.65602026 194.36976963 33.90345633 194.3521984 32.15112305 194.32324219 C29.46654094 194.28133747 26.78446378 194.28217763 24.09960938 194.2890625 C22.39581588 194.27857139 20.69203532 194.26563371 18.98828125 194.25 C18.18510971 194.24979858 17.38193817 194.24959717 16.5544281 194.24938965 C11.03969357 194.13202247 11.03969357 194.13202247 8.81512451 192.62052917 C6.98853764 190.01958703 7.12422338 188.09622329 7.09106445 184.93286133 C7.07127029 183.7318428 7.05147614 182.53082428 7.03108215 181.29341125 C7.02469223 179.99646835 7.01830231 178.69952545 7.01171875 177.36328125 C6.99487291 176.02233734 6.97672279 174.68140924 6.95732117 173.34049988 C6.90980392 169.81422869 6.88000617 166.28802156 6.85388184 162.76153564 C6.8240847 159.1618586 6.77755156 155.56240232 6.73242188 151.96289062 C6.64636957 144.90247007 6.57903306 137.84198136 6.5234375 130.78125 C5.97892944 131.26503616 5.43442139 131.74882233 4.87341309 132.24726868 C4.15657349 132.88021347 3.43973389 133.51315826 2.70117188 134.1652832 C1.99166382 134.79344437 1.28215576 135.42160553 0.55114746 136.06880188 C-10.1391512 145.09700719 -26.35366924 148.6013071 -40.0546875 148.08984375 C-56.68058346 146.59047642 -71.61298631 140.61750104 -82.85546875 128.046875 C-92.51648432 116.43821553 -98.35492155 101.65712329 -100.4765625 86.78125 C-100.59902344 86.01554687 -100.72148437 85.24984375 -100.84765625 84.4609375 C-103.82605307 61.00146624 -99.23863234 35.32130443 -85.5390625 15.78125 C-64.71934398 -10.9240428 -29.12361157 -17.55395766 0 0 Z M-45.94921875 33.78125 C-56.59015662 47.71516352 -56.55016879 65.04027051 -55.4765625 81.78125 C-54.10078099 91.83043672 -50.29864955 101.97006827 -42.4765625 108.78125 C-33.59281002 114.22114273 -24.8964865 116.51951868 -14.55859375 114.09765625 C-6.27317765 111.34346966 0.02905532 107.01141994 4.390625 99.328125 C12.06739812 82.06862129 12.1673055 60.37374071 5.5234375 42.78125 C1.34729756 33.87720034 -4.05185171 28.89102598 -12.80078125 24.65625 C-25.06564234 20.6455509 -37.40290783 24.45068937 -45.94921875 33.78125 Z " fill="#1F001F" transform="translate(546.4765625,62.21875)"/>
<path d="M0 0 C15.88280495 13.87998791 24.51911238 32.43589058 26.42236328 53.328125 C26.595039 55.92932363 26.69402818 58.51881231 26.75 61.125 C26.77707031 61.9279248 26.80414063 62.73084961 26.83203125 63.55810547 C26.80761838 67.11704407 26.63403369 69.2341987 24.26887512 71.96624756 C19.89572859 74.49778316 16.22516056 74.28045717 11.2565918 74.20410156 C9.7632003 74.20497772 9.7632003 74.20497772 8.23963928 74.20587158 C4.95497549 74.20308901 1.67122366 74.17198787 -1.61328125 74.140625 C-3.89299524 74.13316325 -6.17271565 74.12747001 -8.45243835 74.12347412 C-14.44818884 74.10821274 -20.44355081 74.06892602 -26.43914795 74.0246582 C-32.55898788 73.98371672 -38.67889068 73.96546547 -44.79882812 73.9453125 C-56.80355597 73.90243271 -68.80799566 73.83417483 -80.8125 73.75 C-80.20335523 76.31036755 -79.5863921 78.86842246 -78.96484375 81.42578125 C-78.79448608 82.14544067 -78.62412842 82.8651001 -78.4486084 83.60656738 C-76.08723289 93.25321341 -71.91047082 99.52241444 -64.25 105.875 C-53.64717269 111.65836035 -42.24828921 111.9235683 -30.8125 108.75 C-21.63464079 105.60803018 -16.53516377 98.47792213 -11.85546875 90.31640625 C-10.8125 88.75 -10.8125 88.75 -8.8125 87.75 C-4.70800788 87.51594394 -0.60186266 87.52161758 3.50878906 87.50976562 C5.54794246 87.50006922 7.58608361 87.46904996 9.625 87.4375 C10.91148437 87.43234375 12.19796875 87.4271875 13.5234375 87.421875 C15.29533447 87.40785645 15.29533447 87.40785645 17.10302734 87.39355469 C20.46115679 87.7816241 21.8447122 88.34855417 24.1875 90.75 C25.74257986 98.69818593 21.4029469 107.11742289 17.35546875 113.75390625 C15.40218138 116.52395283 13.36027652 119.14919059 11.1875 121.75 C10.59324219 122.46929687 9.99898437 123.18859375 9.38671875 123.9296875 C-3.84868646 138.49713563 -24.72608163 143.88967472 -43.6484375 144.96875 C-66.82062262 145.51504906 -88.36243151 139.23044401 -105.53125 123.12109375 C-120.29757017 107.7732233 -126.18807975 85.64631861 -125.8125 64.75 C-124.95581308 40.94286513 -118.03054967 19.59557992 -100.578125 2.5703125 C-73.07509401 -21.14874443 -28.55914337 -22.14224846 0 0 Z M-72.8125 28.75 C-76.20771601 34.09259676 -77.76265376 38.45092253 -78.8125 44.75 C-59.0125 44.75 -39.2125 44.75 -18.8125 44.75 C-19.81817777 35.69890005 -21.07659778 29.91862536 -27.96484375 23.85546875 C-41.95695074 14.02511666 -61.53701766 15.27567077 -72.8125 28.75 Z " fill="#1F001F" transform="translate(404.8125,67.25)"/>
<path d="M0 0 C0.80610718 -0.00004028 1.61221436 -0.00008057 2.44274902 -0.00012207 C4.14404106 0.00523024 5.84533271 0.02280096 7.54638672 0.05175781 C10.14758005 0.0936105 12.74618301 0.09282621 15.34765625 0.0859375 C17.00262212 0.09643073 18.65757467 0.10936955 20.3125 0.125 C21.08863647 0.12520142 21.86477295 0.12540283 22.66442871 0.12561035 C25.65158166 0.19094037 28.14151456 0.34873425 30.86080933 1.64312744 C33.53191659 4.5451014 33.21222398 7.47631054 33.17041016 11.22363281 C33.17753525 11.99976929 33.18466034 12.77590576 33.19200134 13.57556152 C33.21134193 16.14958893 33.20298446 18.72279849 33.1953125 21.296875 C33.20522403 23.09512526 33.21716702 24.89336536 33.23104858 26.69158936 C33.26348881 31.4402697 33.27380548 36.18871978 33.27789307 40.9375 C33.28662209 48.49460926 33.32266876 56.05152776 33.3700676 63.60848236 C33.38248953 66.22874818 33.38190723 68.84876638 33.37979126 71.46905518 C32.79672917 91.74265997 32.79672917 91.74265997 40.65625 109.59375 C44.5077026 112.82148558 48.57466308 115.22192657 53.65625 115.59375 C54.62304688 115.6865625 54.62304688 115.6865625 55.609375 115.78125 C62.6213995 116.17353109 69.04850578 114.61030924 74.515625 110.0390625 C83.08003125 100.16031668 82.08092 84.78175107 82.03637505 72.49413681 C82.02713609 69.71087849 82.03762699 66.92827537 82.05299377 64.14505005 C82.09277781 56.2441686 82.09428192 48.34334795 82.09204102 40.44238281 C82.09198999 35.58263094 82.11109797 30.72324252 82.14137459 25.86359024 C82.15219094 23.12463139 82.14008578 20.38636677 82.12754822 17.64743042 C82.13644748 15.97441923 82.14652005 14.30141372 82.15795898 12.62841797 C82.14334373 11.49076241 82.14334373 11.49076241 82.12843323 10.3301239 C82.17537132 6.89715306 82.4085647 4.93465558 84.45069885 2.12393188 C87.77600848 -0.18312345 91.0961491 0.02177368 95 0.0625 C95.80610718 0.0586731 96.61221436 0.05484619 97.44274902 0.05090332 C99.14397432 0.0481861 100.84524153 0.0555341 102.54638672 0.07226562 C105.14775896 0.0936801 107.74636972 0.07245981 110.34765625 0.046875 C112.00261025 0.04951831 113.65756254 0.05464337 115.3125 0.0625 C116.08863647 0.05440308 116.86477295 0.04630615 117.66442871 0.03796387 C120.87695137 0.0936374 123.15436632 0.25965282 125.86158752 2.06181335 C128.52429005 5.81839388 128.20858253 9.12061526 128.15795898 13.62231445 C128.16606346 14.99156319 128.16606346 14.99156319 128.17433167 16.38847351 C128.1868531 19.41165462 128.17029083 22.43388873 128.15234375 25.45703125 C128.15249881 27.5677241 128.15398886 29.67841723 128.15675354 31.78910828 C128.15813956 36.22191907 128.14555684 40.65440717 128.12280273 45.0871582 C128.09460877 50.73110404 128.0971006 56.37450595 128.10989285 62.01849079 C128.11690233 66.38466411 128.10899793 70.7507151 128.09663582 75.11687279 C128.09215873 77.19499426 128.0917513 79.27312906 128.09570122 81.3512516 C128.1174282 102.86747364 126.19020585 122.43394648 110.62890625 138.71484375 C95.17916636 153.49407052 73.66670597 156.02635808 53.21484375 155.7421875 C35.18873174 155.28411925 17.49135516 150.73180898 3.90625 138.40625 C-12.46870937 120.77469902 -12.66208308 96.41198186 -12.6796875 73.8359375 C-12.68612979 71.87395128 -12.69285916 69.91196599 -12.69985962 67.94998169 C-12.71174067 63.8706031 -12.71554906 59.7913087 -12.71435547 55.71191406 C-12.71415065 50.48762273 -12.74165984 45.26386547 -12.77589989 40.03970146 C-12.79811313 36.00252796 -12.80219503 31.96548536 -12.80113602 27.92825699 C-12.80349239 26.00093843 -12.81231797 24.07361629 -12.82780075 22.14635849 C-12.84738506 19.46160403 -12.8416571 16.77803502 -12.82958984 14.09326172 C-12.84082886 13.30258804 -12.85206787 12.51191437 -12.86364746 11.69728088 C-12.82159862 8.01790676 -12.45688338 5.78251481 -10.55007935 2.60098267 C-7.31607236 -0.34119117 -4.15481232 -0.08776709 0 0 Z " fill="#1F001F" transform="translate(629.34375,55.40625)"/>
<path d="M0 0 C0.80610718 -0.0038269 1.61221436 -0.00765381 2.44274902 -0.01159668 C4.14397432 -0.0143139 5.84524153 -0.0069659 7.54638672 0.00976562 C10.14775896 0.0311801 12.74636972 0.00995981 15.34765625 -0.015625 C17.00261025 -0.01298169 18.65756254 -0.00785663 20.3125 0 C21.47670471 -0.01214539 21.47670471 -0.01214539 22.66442871 -0.02453613 C26.00106115 0.03328824 28.15692111 0.15427273 30.86119843 2.19591522 C33.12659818 5.14316582 33.15885928 6.72187651 33.16418457 10.41418457 C33.17546387 11.61712662 33.18674316 12.82006866 33.19836426 14.0594635 C33.19026733 15.37595383 33.18217041 16.69244415 33.17382812 18.04882812 C33.17924933 19.45178453 33.18637198 20.85473524 33.19506836 22.25767517 C33.21330527 26.06557863 33.20623295 29.87304865 33.19355202 33.6809597 C33.18342613 37.66561427 33.19281654 41.65023168 33.19909668 45.6348877 C33.20637431 52.32648381 33.19678245 59.01790335 33.17773438 65.70947266 C33.15596528 73.44628758 33.16301658 81.18268087 33.18504 88.91948557 C33.2031908 95.56164869 33.20575393 102.20368487 33.19528532 108.84586477 C33.18904858 112.81317144 33.18821957 116.78027991 33.20143127 120.74757385 C33.21298465 124.4774455 33.20497417 128.20677348 33.18185425 131.93658638 C33.17404043 133.95872881 33.18592744 135.98091722 33.19836426 138.0030365 C33.18708496 139.20597855 33.17580566 140.40892059 33.16418457 141.64831543 C33.16267647 142.69396416 33.16116837 143.73961288 33.15961456 144.81694794 C32.52126771 148.25911751 31.4245659 149.44126043 28.65625 151.53125 C25.74545028 151.9290643 23.22076259 152.09284 20.3125 152.0625 C19.50639282 152.0663269 18.70028564 152.07015381 17.86975098 152.07409668 C16.16852568 152.0768139 14.46725847 152.0694659 12.76611328 152.05273438 C10.16474104 152.0313199 7.56613028 152.05254019 4.96484375 152.078125 C3.30988975 152.07548169 1.65493746 152.07035663 0 152.0625 C-0.77613647 152.07059692 -1.55227295 152.07869385 -2.35192871 152.08703613 C-5.68856115 152.02921176 -7.84442111 151.90822727 -10.54869843 149.86658478 C-12.81409818 146.91933418 -12.84635928 145.34062349 -12.85168457 141.64831543 C-12.86296387 140.44537338 -12.87424316 139.24243134 -12.88586426 138.0030365 C-12.87371887 136.02830101 -12.87371887 136.02830101 -12.86132812 134.01367188 C-12.86674933 132.61071547 -12.87387198 131.20776476 -12.88256836 129.80482483 C-12.90080527 125.99692137 -12.89373295 122.18945135 -12.88105202 118.3815403 C-12.87092613 114.39688573 -12.88031654 110.41226832 -12.88659668 106.4276123 C-12.89387431 99.73601619 -12.88428245 93.04459665 -12.86523438 86.35302734 C-12.84346528 78.61621242 -12.85051658 70.87981913 -12.87254 63.14301443 C-12.8906908 56.50085131 -12.89325393 49.85881513 -12.88278532 43.21663523 C-12.87654858 39.24932856 -12.87571957 35.28222009 -12.88893127 31.31492615 C-12.90048465 27.5850545 -12.89247417 23.85572652 -12.86935425 20.12591362 C-12.86154043 18.10377119 -12.87342744 16.08158278 -12.88586426 14.0594635 C-12.87458496 12.85652145 -12.86330566 11.65357941 -12.85168457 10.41418457 C-12.85017647 9.36853584 -12.84866837 8.32288712 -12.84711456 7.24555206 C-11.52879997 0.13677987 -6.18979945 -0.06457413 0 0 Z " fill="#1F001F" transform="translate(787.34375,55.46875)"/>
<path d="M0 0 C0.9170874 -0.00619858 1.8341748 -0.01239716 2.77905273 -0.01878357 C4.71564676 -0.02587917 6.65230182 -0.02271225 8.58886719 -0.01000977 C11.55257287 0.00385979 14.51312334 -0.03022146 17.4765625 -0.06835938 C19.35937577 -0.06931055 21.242193 -0.06745182 23.125 -0.0625 C24.45325806 -0.08238731 24.45325806 -0.08238731 25.80834961 -0.10267639 C29.87109636 -0.04115483 31.88525476 0.02357708 35.12353516 2.61914062 C36.90521677 6.26835345 37.10441802 9.37690557 37.0234375 13.3515625 C37.02206284 14.45871864 37.02206284 14.45871864 37.0206604 15.58824158 C37.01464027 17.1423082 36.99894191 18.69636408 36.97412109 20.25024414 C36.93756094 22.62494776 36.9331024 24.99809082 36.93359375 27.37304688 C36.92376326 28.88673219 36.91210655 30.40040698 36.8984375 31.9140625 C36.89621185 32.62144058 36.89398621 33.32881866 36.89169312 34.05763245 C36.7629346 40.76074815 36.7629346 40.76074815 34.5625 43.56640625 C30.39634078 45.99794927 26.06887518 45.85750562 21.375 45.83203125 C20.59487549 45.8339447 19.81475098 45.83585815 19.01098633 45.83782959 C17.36702144 45.83918627 15.72304566 45.83552604 14.07910156 45.82714844 C11.57071746 45.81644133 9.06304947 45.82706104 6.5546875 45.83984375 C4.95312343 45.83852206 3.3515598 45.83595948 1.75 45.83203125 C0.63105347 45.83810394 0.63105347 45.83810394 -0.51049805 45.84429932 C-4.57135438 45.80794627 -7.85346394 45.55220072 -11.4375 43.56640625 C-13.92817291 39.83039689 -13.76074941 36.86842892 -13.7734375 32.5390625 C-13.7800943 31.75373642 -13.7867511 30.96841034 -13.79360962 30.1592865 C-13.80372915 28.49919984 -13.80842685 26.83907255 -13.80810547 25.17895508 C-13.81247846 22.64140721 -13.84880172 20.10559945 -13.88671875 17.56835938 C-13.89258717 15.95443303 -13.8965564 14.34049842 -13.8984375 12.7265625 C-13.91280853 11.96916275 -13.92717957 11.211763 -13.94198608 10.43141174 C-13.91388781 7.18578563 -13.64131592 4.91691154 -11.99853516 2.09179688 C-8.09398574 -0.23381082 -4.46817571 -0.02502703 0 0 Z " fill="#DA0081" transform="translate(13.4375,1.43359375)"/>
</svg>
